<svg xmlns="http://www.w3.org/2000/svg" xmlns:xlink="http://www.w3.org/1999/xlink" width="2304" zoomAndPan="magnify" viewBox="0 0 1728 1295.99994" height="1728" preserveAspectRatio="xMidYMid meet" version="1.0"><defs><g/><clipPath id="760884eb00"><path d="M 0 0.878906 L 804 0.878906 L 804 798.160156 L 0 798.160156 Z M 0 0.878906 " clip-rule="nonzero"/></clipPath><clipPath id="b40c12df0b"><rect x="0" width="804" y="0" height="799"/></clipPath><clipPath id="32785ddc75"><path d="M 830 165 L 1717.917969 165 L 1717.917969 688 L 830 688 Z M 830 165 " clip-rule="nonzero"/></clipPath><clipPath id="1a8ba967bc"><rect x="0" width="888" y="0" height="523"/></clipPath><clipPath id="9544be95a6"><rect x="0" width="1718" y="0" height="799"/></clipPath></defs><g transform="matrix(1, 0, 0, 1, 0, 248)"><g clip-path="url(#9544be95a6)"><g clip-path="url(#760884eb00)"><g transform="matrix(1, 0, 0, 1, 0, 0.000000000000085265)"><g clip-path="url(#b40c12df0b)"><g fill="#ffffff" fill-opacity="1"><g transform="translate(-4.015223, 608.873703)"><g><path d="M 102.3125 0.65625 L 91.828125 -0.65625 L 86.578125 -0.65625 L 76.078125 0 L 49.1875 0 L 45.25 -0.65625 L 40.015625 -0.65625 L 30.171875 -1.3125 L 24.265625 -1.96875 L 19.671875 -5.90625 L 20.328125 -11.15625 L 21.640625 -17.703125 L 21.640625 -27.546875 L 23.609375 -32.796875 L 24.921875 -38.703125 L 26.234375 -47.875 L 27.546875 -55.75 L 28.203125 -60.34375 L 30.828125 -68.875 L 32.140625 -78.046875 L 32.796875 -87.234375 L 34.109375 -91.171875 L 34.765625 -95.765625 L 36.078125 -100.34375 L 36.734375 -105.59375 L 38.703125 -110.84375 L 39.359375 -114.78125 L 40.671875 -124.625 L 41.984375 -135.109375 L 44.59375 -141.671875 L 43.9375 -148.234375 L 45.90625 -157.40625 L 47.875 -162.65625 L 49.1875 -167.90625 L 49.84375 -171.84375 L 49.84375 -176.4375 L 51.8125 -184.96875 L 53.125 -193.484375 L 53.78125 -198.078125 L 55.75 -205.953125 L 55.75 -209.890625 L 56.40625 -212.515625 L 57.71875 -219.0625 L 60.34375 -228.25 L 61 -237.4375 L 62.3125 -240.71875 L 64.9375 -249.234375 L 65.59375 -254.484375 L 68.21875 -263.671875 L 69.53125 -272.84375 L 69.53125 -278.09375 L 70.1875 -282.6875 L 71.484375 -287.28125 L 73.453125 -293.1875 L 74.109375 -299.09375 L 74.765625 -306.953125 L 76.078125 -311.546875 L 76.734375 -315.484375 L 78.703125 -320.734375 L 79.359375 -326.640625 L 80.015625 -330.5625 L 80.015625 -335.15625 L 81.328125 -339.09375 L 81.984375 -343.03125 L 83.296875 -352.875 L 85.921875 -362.046875 L 87.234375 -383.046875 L 89.203125 -392.875 L 91.171875 -401.40625 L 95.109375 -417.140625 L 97.078125 -425.671875 L 97.078125 -430.921875 L 97.734375 -435.515625 L 98.390625 -445.34375 L 99.703125 -451.25 L 101.65625 -454.53125 L 107.5625 -459.78125 L 116.75 -460.4375 L 133.140625 -460.4375 L 137.078125 -459.78125 L 144.296875 -460.4375 L 158.0625 -460.4375 L 190.203125 -459.125 L 216.4375 -459.78125 L 225.625 -459.125 L 245.296875 -459.125 L 252.515625 -457.8125 L 259.078125 -457.15625 L 268.921875 -454.53125 L 276.78125 -452.5625 L 283.34375 -449.28125 L 289.25 -446.65625 L 296.46875 -440.765625 L 304.984375 -431.578125 L 310.890625 -426.328125 L 313.515625 -422.390625 L 315.484375 -419.109375 L 318.109375 -411.25 L 322.046875 -402.0625 L 322.703125 -396.8125 L 322.703125 -392.21875 L 324.015625 -386.96875 L 325.328125 -379.109375 L 324.671875 -369.265625 L 324.015625 -365.328125 L 324.015625 -360.734375 L 323.359375 -356.796875 L 322.046875 -352.21875 L 322.046875 -348.28125 L 320.734375 -339.75 L 320.078125 -335.15625 L 317.453125 -326.640625 L 318.109375 -322.703125 L 316.796875 -318.109375 L 316.140625 -316.140625 L 315.484375 -311.546875 L 314.171875 -307.609375 L 312.859375 -303.015625 L 310.890625 -299.09375 L 308.265625 -293.1875 L 303.671875 -285.96875 L 299.09375 -279.40625 L 293.84375 -271.53125 L 285.3125 -263.015625 L 282.03125 -260.390625 L 278.75 -256.453125 L 275.46875 -253.828125 L 270.890625 -251.203125 L 263.015625 -246.609375 L 255.140625 -243.328125 L 249.234375 -240.71875 L 249.234375 -236.78125 L 255.796875 -234.15625 L 263.015625 -230.21875 L 268.921875 -227.59375 L 276.78125 -222.34375 L 280.71875 -217.75 L 284.65625 -213.828125 L 288.59375 -207.265625 L 291.21875 -202.671875 L 294.5 -195.453125 L 295.8125 -188.890625 L 297.78125 -184.96875 L 299.09375 -176.4375 L 301.703125 -167.90625 L 301.046875 -159.375 L 302.359375 -152.828125 L 301.703125 -146.921875 L 301.703125 -138.390625 L 301.046875 -133.796875 L 299.734375 -123.96875 L 297.78125 -114.125 L 295.8125 -105.59375 L 295.15625 -101 L 293.1875 -91.828125 L 291.875 -87.890625 L 290.5625 -83.296875 L 289.25 -79.359375 L 287.9375 -74.765625 L 277.4375 -53.78125 L 271.53125 -45.90625 L 267.609375 -38.703125 L 264.328125 -35.421875 L 259.734375 -31.484375 L 257.109375 -28.203125 L 251.859375 -24.921875 L 247.921875 -22.953125 L 244.640625 -19.671875 L 240.0625 -17.046875 L 236.78125 -14.421875 L 233.5 -12.46875 L 228.90625 -10.5 L 223.65625 -7.875 L 216.4375 -5.90625 L 211.203125 -3.9375 L 207.265625 -3.28125 L 201.359375 -2.625 L 192.828125 -0.65625 L 188.890625 -1.3125 L 179.0625 0.65625 L 169.21875 0 L 164.625 -0.65625 L 160.03125 0 L 142.328125 0.65625 L 133.796875 0 L 128.546875 -0.65625 L 119.375 -0.65625 L 114.125 0 L 112.15625 0 Z M 176.4375 -284.65625 L 185.609375 -285.3125 L 193.484375 -286.625 L 198.734375 -289.90625 L 205.953125 -294.5 L 213.828125 -301.046875 L 217.09375 -306.953125 L 222.34375 -313.515625 L 225.625 -322.703125 L 227.59375 -330.5625 L 228.90625 -334.5 L 229.5625 -339.75 L 232.1875 -346.3125 L 231.53125 -353.53125 L 230.875 -358.109375 L 230.21875 -365.984375 L 226.28125 -373.859375 L 224.3125 -377.140625 L 219.0625 -381.734375 L 215.125 -382.390625 L 209.234375 -383.703125 L 197.421875 -385.015625 L 181.03125 -385.015625 L 175.78125 -383.703125 L 175.78125 -379.109375 L 173.8125 -373.203125 L 173.15625 -367.296875 L 172.5 -362.703125 L 170.53125 -354.84375 L 170.53125 -350.25 L 168.5625 -341.71875 L 167.90625 -337.125 L 166.59375 -333.1875 L 162 -301.046875 L 160.6875 -295.8125 L 160.03125 -289.25 L 160.03125 -285.3125 L 168.5625 -285.3125 Z M 134.453125 -83.953125 L 140.359375 -85.921875 L 156.765625 -83.953125 L 169.21875 -83.953125 L 173.8125 -85.921875 L 178.40625 -85.921875 L 183 -87.890625 L 188.890625 -92.484375 L 193.484375 -96.421875 L 197.421875 -102.3125 L 198.078125 -107.5625 L 201.359375 -114.78125 L 202.671875 -119.375 L 203.328125 -124.625 L 206.609375 -133.140625 L 207.921875 -144.953125 L 207.265625 -156.109375 L 207.921875 -164.625 L 202.015625 -180.375 L 194.796875 -186.921875 L 182.34375 -191.515625 L 175.78125 -192.828125 L 170.53125 -194.140625 L 161.34375 -194.140625 L 154.140625 -194.796875 L 144.953125 -194.796875 L 142.984375 -188.890625 L 141.671875 -177.09375 L 140.359375 -171.84375 L 139.046875 -169.21875 L 137.734375 -159.375 L 136.421875 -154.796875 L 136.421875 -150.203125 L 135.109375 -146.265625 L 134.453125 -141.015625 L 133.140625 -131.828125 L 131.828125 -127.25 L 129.859375 -117.40625 L 129.859375 -112.8125 L 128.546875 -103.625 L 127.25 -98.390625 L 126.59375 -93.140625 L 123.96875 -84.609375 Z M 134.453125 -83.953125 "/></g></g></g><g fill="#ffffff" fill-opacity="1"><g transform="translate(311.465564, 608.873703)"><g><path d="M 90.515625 1.3125 L 85.921875 0.65625 L 66.90625 0.65625 L 57.71875 -0.65625 L 52.46875 -0.65625 L 47.875 0 L 40.671875 -0.65625 L 36.078125 -1.3125 L 30.828125 -0.65625 L 25.578125 -1.96875 L 20.328125 -6.5625 L 19.671875 -16.390625 L 22.953125 -25.578125 L 23.609375 -35.421875 L 24.921875 -40.015625 L 26.234375 -49.1875 L 26.890625 -54.4375 L 28.859375 -64.28125 L 29.515625 -68.875 L 30.828125 -74.109375 L 31.484375 -78.703125 L 34.109375 -87.234375 L 33.453125 -91.171875 L 35.421875 -102.96875 L 37.390625 -110.1875 L 38.703125 -116.09375 L 40.671875 -122 L 41.984375 -127.90625 L 43.28125 -135.765625 L 43.28125 -140.359375 L 44.59375 -144.953125 L 45.25 -148.890625 L 46.5625 -153.484375 L 45.90625 -158.0625 L 50.5 -172.5 L 51.8125 -182.34375 L 51.8125 -186.265625 L 53.125 -190.859375 L 53.78125 -195.453125 L 54.4375 -199.390625 L 55.75 -208.578125 L 55.75 -217.75 L 58.375 -226.9375 L 58.375 -231.53125 L 59.6875 -240.71875 L 62.3125 -245.953125 L 62.3125 -254.484375 L 63.625 -262.359375 L 65.59375 -270.890625 L 68.875 -280.0625 L 70.84375 -293.84375 L 70.84375 -303.015625 L 72.796875 -307.609375 L 74.109375 -316.796875 L 74.765625 -320.734375 L 74.109375 -325.328125 L 76.734375 -333.1875 L 77.390625 -337.125 L 79.359375 -345.65625 L 80.015625 -350.25 L 82.640625 -358.765625 L 81.984375 -363.359375 L 82.640625 -368.609375 L 83.296875 -377.140625 L 84.609375 -380.421875 L 85.921875 -389.59375 L 87.890625 -398.125 L 88.546875 -402.0625 L 89.859375 -406 L 90.515625 -413.859375 L 91.828125 -421.078125 L 94.453125 -428.296875 L 95.765625 -438.140625 L 97.078125 -442.078125 L 97.734375 -446.65625 L 102.3125 -453.21875 L 106.90625 -455.1875 L 110.84375 -457.8125 L 115.4375 -458.46875 L 125.28125 -459.125 L 131.171875 -458.46875 L 140.359375 -458.46875 L 144.953125 -459.125 L 179.71875 -459.125 L 184.3125 -459.78125 L 191.515625 -457.8125 L 194.140625 -451.25 L 193.484375 -447.3125 L 193.484375 -438.796875 L 192.171875 -436.828125 L 191.515625 -429.609375 L 192.171875 -425.671875 L 190.203125 -423.046875 L 190.203125 -417.140625 L 188.234375 -413.859375 L 186.921875 -404.6875 L 184.3125 -398.78125 L 184.3125 -393.53125 L 183.65625 -389.59375 L 183.65625 -385.015625 L 183 -381.078125 L 179.71875 -364.015625 L 178.40625 -356.796875 L 177.09375 -352.875 L 175.78125 -345 L 175.125 -340.40625 L 174.46875 -332.53125 L 173.8125 -327.953125 L 172.5 -319.421875 L 170.53125 -311.546875 L 168.5625 -303.015625 L 167.90625 -299.734375 L 165.9375 -290.5625 L 163.96875 -284.65625 L 163.96875 -278.75 L 163.3125 -274.15625 L 162.65625 -268.921875 L 162.65625 -264.328125 L 161.34375 -255.796875 L 159.375 -249.234375 L 156.109375 -229.5625 L 153.484375 -220.375 L 151.515625 -215.78125 L 151.515625 -210.546875 L 149.546875 -202.015625 L 148.234375 -193.484375 L 146.921875 -185.609375 L 144.296875 -176.4375 L 144.296875 -171.1875 L 141.671875 -162 L 141.671875 -156.765625 L 140.359375 -147.578125 L 139.703125 -144.296875 L 139.703125 -135.109375 L 136.421875 -128.546875 L 137.078125 -121.34375 L 135.109375 -111.5 L 134.453125 -106.25 L 131.828125 -97.734375 L 131.828125 -92.484375 L 129.859375 -83.296875 L 128.546875 -74.109375 L 127.25 -65.59375 L 127.25 -61 L 125.28125 -53.78125 L 122.65625 -38.046875 L 120.6875 -29.515625 L 119.375 -20.328125 L 117.40625 -11.8125 L 116.75 -6.5625 L 114.78125 -0.65625 L 107.5625 1.3125 Z M 90.515625 1.3125 "/></g></g></g><g fill="#ffffff" fill-opacity="1"><g transform="translate(483.963341, 608.873703)"><g><path d="M 142.328125 6.5625 L 133.796875 5.90625 L 129.203125 5.90625 L 118.71875 4.59375 L 114.78125 4.59375 L 103.625 1.96875 L 97.078125 0 L 85.921875 -2.625 L 76.734375 -7.21875 L 67.5625 -14.421875 L 62.3125 -17.046875 L 55.75 -24.265625 L 53.125 -27.546875 L 51.15625 -30.828125 L 46.5625 -38.703125 L 41.984375 -43.28125 L 40.015625 -49.1875 L 38.046875 -55.75 L 37.390625 -61 L 34.765625 -67.5625 L 32.796875 -72.140625 L 32.796875 -76.078125 L 30.171875 -89.859375 L 30.828125 -101.65625 L 32.140625 -108.21875 L 32.140625 -117.40625 L 32.796875 -120.03125 L 32.796875 -128.546875 L 33.453125 -133.140625 L 34.109375 -137.078125 L 34.765625 -145.609375 L 35.421875 -150.203125 L 36.734375 -158.71875 L 35.421875 -163.3125 L 38.046875 -171.84375 L 38.046875 -180.375 L 40.015625 -189.546875 L 40.671875 -199.390625 L 43.28125 -208.578125 L 43.9375 -219.0625 L 44.59375 -224.3125 L 47.21875 -233.5 L 48.53125 -242.671875 L 51.8125 -256.453125 L 53.78125 -264.984375 L 53.125 -270.890625 L 55.09375 -277.4375 L 55.75 -282.03125 L 58.375 -291.21875 L 60.34375 -298.4375 L 61.65625 -306.953125 L 62.3125 -312.203125 L 64.9375 -318.109375 L 65.59375 -325.328125 L 66.90625 -329.90625 L 67.5625 -333.84375 L 69.53125 -337.78125 L 70.1875 -342.375 L 72.140625 -346.3125 L 73.453125 -350.90625 L 75.421875 -354.84375 L 78.703125 -362.703125 L 79.359375 -365.984375 L 81.984375 -373.859375 L 84.609375 -383.046875 L 86.578125 -386.96875 L 88.546875 -392.21875 L 92.484375 -400.75 L 94.453125 -404.6875 L 95.765625 -409.28125 L 99.046875 -415.171875 L 102.3125 -422.390625 L 104.9375 -425.671875 L 106.90625 -429.609375 L 109.53125 -432.890625 L 116.75 -440.765625 L 125.28125 -447.3125 L 133.796875 -451.25 L 142.328125 -455.84375 L 150.859375 -459.125 L 159.375 -461.75 L 169.875 -463.0625 L 179.0625 -465.03125 L 198.734375 -465.03125 L 216.4375 -465.6875 L 224.96875 -465.03125 L 233.5 -463.71875 L 238.75 -462.40625 L 247.265625 -462.40625 L 258.421875 -460.4375 L 263.015625 -458.46875 L 274.15625 -453.875 L 283.34375 -450.59375 L 291.21875 -444.03125 L 300.390625 -434.859375 L 302.359375 -430.921875 L 304.328125 -428.296875 L 305.640625 -422.390625 L 308.265625 -415.171875 L 308.921875 -407.96875 L 309.578125 -399.4375 L 309.578125 -373.859375 L 308.921875 -365.328125 L 308.921875 -358.109375 L 308.265625 -350.25 L 308.265625 -345.65625 L 306.953125 -337.78125 L 306.296875 -329.90625 L 305.640625 -324.015625 L 304.328125 -314.171875 L 300.390625 -305.640625 L 294.5 -301.703125 L 281.375 -301.046875 L 270.234375 -301.703125 L 259.734375 -301.046875 L 253.171875 -301.703125 L 234.8125 -301.703125 L 227.59375 -302.359375 L 221.03125 -304.984375 L 220.375 -310.234375 L 221.03125 -317.453125 L 222.34375 -327.953125 L 223.65625 -336.46875 L 224.96875 -341.0625 L 224.3125 -346.96875 L 226.28125 -358.765625 L 225.625 -363.359375 L 224.96875 -370.578125 L 224.3125 -374.515625 L 221.03125 -379.109375 L 217.09375 -383.046875 L 210.546875 -385.65625 L 196.109375 -385.65625 L 191.515625 -384.359375 L 185.609375 -381.078125 L 180.375 -375.828125 L 178.40625 -371.890625 L 175.78125 -367.296875 L 173.8125 -362.703125 L 173.15625 -358.765625 L 169.21875 -351.5625 L 165.28125 -343.03125 L 163.3125 -335.15625 L 162.65625 -329.90625 L 160.6875 -325.328125 L 160.6875 -320.734375 L 158.0625 -314.828125 L 157.40625 -310.890625 L 156.109375 -306.296875 L 154.796875 -298.4375 L 152.171875 -293.1875 L 151.515625 -288.59375 L 150.203125 -280.0625 L 148.234375 -275.46875 L 146.921875 -268.921875 L 146.265625 -263.015625 L 144.296875 -257.109375 L 142.328125 -248.578125 L 141.671875 -241.375 L 139.046875 -228.90625 L 137.078125 -220.375 L 135.765625 -215.78125 L 135.109375 -207.265625 L 133.796875 -203.328125 L 133.140625 -194.140625 L 133.140625 -189.546875 L 131.171875 -183 L 129.203125 -175.78125 L 129.203125 -168.5625 L 128.546875 -159.375 L 127.90625 -150.859375 L 127.25 -146.265625 L 126.59375 -142.328125 L 125.9375 -133.796875 L 125.28125 -124.625 L 125.28125 -114.78125 L 125.9375 -108.21875 L 125.9375 -101.65625 L 129.859375 -95.765625 L 132.484375 -91.171875 L 134.453125 -89.203125 L 141.015625 -85.921875 L 153.484375 -83.953125 L 165.9375 -83.953125 L 173.8125 -86.578125 L 181.03125 -91.171875 L 185.609375 -97.078125 L 188.234375 -102.96875 L 191.515625 -110.84375 L 193.484375 -116.75 L 195.453125 -123.3125 L 199.390625 -138.390625 L 202.671875 -163.96875 L 201.359375 -167.25 L 196.765625 -167.90625 L 181.6875 -167.90625 L 177.75 -171.84375 L 177.75 -179.71875 L 181.03125 -197.421875 L 183 -213.171875 L 184.3125 -219.71875 L 184.96875 -224.96875 L 188.234375 -239.40625 L 188.890625 -242.03125 L 192.171875 -245.953125 L 207.921875 -246.609375 L 213.171875 -245.953125 L 223.65625 -246.609375 L 234.15625 -245.953125 L 257.765625 -245.953125 L 262.359375 -246.609375 L 271.53125 -245.953125 L 285.3125 -245.953125 L 293.1875 -242.671875 L 293.1875 -226.28125 L 291.875 -217.75 L 291.875 -212.515625 L 290.5625 -204.640625 L 289.90625 -199.390625 L 289.25 -195.453125 L 288.59375 -190.859375 L 288.59375 -186.921875 L 286.625 -178.40625 L 285.3125 -174.46875 L 285.96875 -169.875 L 284.65625 -165.9375 L 283.34375 -157.40625 L 282.6875 -152.828125 L 280.71875 -144.953125 L 280.0625 -140.359375 L 278.75 -132.484375 L 277.4375 -125.28125 L 276.125 -114.78125 L 273.5 -105.59375 L 271.53125 -101 L 270.234375 -88.546875 L 268.265625 -85.265625 L 266.953125 -80.015625 L 264.984375 -74.109375 L 261.703125 -65.59375 L 259.078125 -61 L 257.765625 -57.0625 L 256.453125 -52.46875 L 251.859375 -42.640625 L 249.234375 -38.046875 L 243.328125 -29.515625 L 235.46875 -19.671875 L 227.59375 -14.421875 L 223.65625 -12.46875 L 218.40625 -8.53125 L 209.890625 -4.59375 L 200.046875 -0.65625 L 186.265625 1.3125 L 183 1.96875 L 173.8125 3.9375 L 163.3125 5.90625 L 148.890625 5.90625 Z M 142.328125 6.5625 "/></g></g></g></g></g></g><g clip-path="url(#32785ddc75)"><g transform="matrix(1, 0, 0, 1, 830, 165)"><g clip-path="url(#1a8ba967bc)"><g fill="#ffffff" fill-opacity="1"><g transform="translate(4.325313, 430.616614)"><g><path d="M 71.6875 0 C 63.238281 0 55.660156 -1.671875 48.953125 -5.015625 C 42.253906 -8.367188 36.5 -12.234375 31.6875 -16.609375 C 26.882812 -20.984375 23.023438 -25.28125 20.109375 -29.5 C 17.191406 -33.726562 15.148438 -36.863281 13.984375 -38.90625 L 32.34375 -53.765625 C 35.257812 -49.972656 39.117188 -46.035156 43.921875 -41.953125 C 48.734375 -37.878906 54.054688 -35.84375 59.890625 -35.84375 C 64.253906 -35.84375 68.039062 -36.863281 71.25 -38.90625 C 74.457031 -40.945312 77.148438 -43.710938 79.328125 -47.203125 C 81.515625 -50.703125 83.191406 -54.707031 84.359375 -59.21875 C 85.523438 -63.738281 86.109375 -68.332031 86.109375 -73 C 86.109375 -75.332031 85.960938 -77.660156 85.671875 -79.984375 C 85.378906 -82.316406 84.941406 -84.648438 84.359375 -86.984375 C 82.035156 -97.179688 77.957031 -107.085938 72.125 -116.703125 C 66.300781 -126.328125 59.890625 -136.238281 52.890625 -146.4375 C 47.941406 -153.425781 43.0625 -160.632812 38.25 -168.0625 C 33.4375 -175.5 29.207031 -183.148438 25.5625 -191.015625 C 21.925781 -198.890625 18.941406 -207.050781 16.609375 -215.5 C 14.273438 -223.945312 13.109375 -232.835938 13.109375 -242.171875 C 12.523438 -253.242188 13.910156 -263.296875 17.265625 -272.328125 C 20.617188 -281.359375 25.132812 -289.148438 30.8125 -295.703125 C 36.5 -302.265625 43.203125 -307.367188 50.921875 -311.015625 C 58.648438 -314.660156 66.738281 -316.484375 75.1875 -316.484375 C 88.007812 -316.484375 99.375 -312.765625 109.28125 -305.328125 C 119.1875 -297.898438 127.347656 -288.648438 133.765625 -277.578125 L 115.40625 -262.71875 C 112.195312 -267.082031 108.1875 -271.085938 103.375 -274.734375 C 98.570312 -278.378906 93.546875 -280.203125 88.296875 -280.203125 C 79.265625 -280.203125 72.5625 -276.410156 68.1875 -268.828125 C 63.820312 -261.253906 61.640625 -252.804688 61.640625 -243.484375 C 61.640625 -241.148438 61.785156 -238.816406 62.078125 -236.484375 C 62.367188 -234.148438 62.804688 -231.816406 63.390625 -229.484375 C 65.710938 -219.285156 69.785156 -209.378906 75.609375 -199.765625 C 81.441406 -190.148438 87.859375 -180.242188 94.859375 -170.046875 C 99.804688 -163.046875 104.6875 -155.828125 109.5 -148.390625 C 114.3125 -140.960938 118.535156 -133.316406 122.171875 -125.453125 C 125.816406 -117.585938 128.804688 -109.425781 131.140625 -100.96875 C 133.472656 -92.519531 134.640625 -83.488281 134.640625 -73.875 C 134.929688 -62.800781 133.472656 -52.742188 130.265625 -43.703125 C 127.054688 -34.671875 122.535156 -26.875 116.703125 -20.3125 C 110.878906 -13.757812 104.101562 -8.734375 96.375 -5.234375 C 88.65625 -1.742188 80.425781 0 71.6875 0 Z M 71.6875 0 "/></g></g></g><g fill="#ffffff" fill-opacity="1"><g transform="translate(152.070621, 430.616614)"><g><path d="M 55.515625 -232.109375 L 13.109375 -232.109375 L 13.109375 -253.09375 L 139.875 -253.09375 L 139.875 -232.109375 L 97.484375 -232.109375 L 97.484375 0 L 55.515625 0 Z M 55.515625 -232.109375 "/></g></g></g><g fill="#ffffff" fill-opacity="1"><g transform="translate(305.061318, 430.616614)"><g><path d="M 21.859375 -253.09375 L 116.71875 -253.09375 L 106.21875 -232.109375 L 64.25 -232.109375 L 64.25 -158.234375 L 106.21875 -158.234375 L 95.734375 -137.25 L 64.25 -137.25 L 64.25 -20.984375 L 116.71875 -20.984375 L 116.71875 0 L 21.859375 0 Z M 21.859375 -253.09375 "/></g></g></g><g fill="#ffffff" fill-opacity="1"><g transform="translate(434.884847, 430.616614)"><g><path d="M 27.96875 -221.625 L 17.484375 -253.09375 L 70.375 -253.09375 C 82.613281 -253.09375 93.320312 -251.851562 102.5 -249.375 C 111.6875 -246.90625 119.410156 -242.828125 125.671875 -237.140625 C 131.941406 -231.453125 136.601562 -223.875 139.65625 -214.40625 C 142.71875 -204.9375 144.25 -193.207031 144.25 -179.21875 C 144.25 -165.226562 142.71875 -153.5 139.65625 -144.03125 C 136.601562 -134.5625 131.941406 -126.984375 125.671875 -121.296875 C 119.410156 -115.617188 111.6875 -111.539062 102.5 -109.0625 C 93.320312 -106.582031 82.613281 -105.34375 70.375 -105.34375 L 70.375 0 L 27.96875 0 Z M 70.375 -125.890625 C 77.375 -125.890625 83.128906 -127.421875 87.640625 -130.484375 C 92.160156 -133.546875 95.726562 -137.625 98.34375 -142.71875 C 100.96875 -147.820312 102.789062 -153.503906 103.8125 -159.765625 C 104.832031 -166.035156 105.34375 -172.519531 105.34375 -179.21875 C 105.34375 -185.925781 104.832031 -192.410156 103.8125 -198.671875 C 102.789062 -204.941406 100.96875 -210.625 98.34375 -215.71875 C 95.726562 -220.820312 92.160156 -224.898438 87.640625 -227.953125 C 83.128906 -231.015625 77.375 -232.691406 70.375 -232.984375 Z M 70.375 -125.890625 "/></g></g></g><g fill="#ffffff" fill-opacity="1"><g transform="translate(592.246687, 430.616614)"><g><path d="M 27.96875 -221.625 L 17.484375 -253.09375 L 70.375 -253.09375 C 82.613281 -253.09375 93.320312 -251.851562 102.5 -249.375 C 111.6875 -246.90625 119.410156 -242.828125 125.671875 -237.140625 C 131.941406 -231.453125 136.601562 -223.875 139.65625 -214.40625 C 142.71875 -204.9375 144.25 -193.207031 144.25 -179.21875 C 144.25 -165.226562 142.71875 -153.5 139.65625 -144.03125 C 136.601562 -134.5625 131.941406 -126.984375 125.671875 -121.296875 C 119.410156 -115.617188 111.6875 -111.539062 102.5 -109.0625 C 93.320312 -106.582031 82.613281 -105.34375 70.375 -105.34375 L 70.375 0 L 27.96875 0 Z M 70.375 -125.890625 C 77.375 -125.890625 83.128906 -127.421875 87.640625 -130.484375 C 92.160156 -133.546875 95.726562 -137.625 98.34375 -142.71875 C 100.96875 -147.820312 102.789062 -153.503906 103.8125 -159.765625 C 104.832031 -166.035156 105.34375 -172.519531 105.34375 -179.21875 C 105.34375 -185.925781 104.832031 -192.410156 103.8125 -198.671875 C 102.789062 -204.941406 100.96875 -210.625 98.34375 -215.71875 C 95.726562 -220.820312 92.160156 -224.898438 87.640625 -227.953125 C 83.128906 -231.015625 77.375 -232.691406 70.375 -232.984375 Z M 70.375 -125.890625 "/></g></g></g><g fill="#ffffff" fill-opacity="1"><g transform="translate(749.608527, 430.616614)"><g><path d="M 45.46875 -221.625 L 40.21875 -253.09375 L 82.609375 -253.09375 L 124.578125 0 L 82.609375 0 L 73.875 -52.890625 L 38.46875 -52.890625 L 29.71875 0 L 8.75 0 Z M 70.375 -73.875 L 56.390625 -158.234375 L 41.96875 -73.875 Z M 70.375 -73.875 "/></g></g></g></g></g></g></g></g></svg>