<svg width="401" height="25" viewBox="0 0 401 25" fill="none" xmlns="http://www.w3.org/2000/svg">
<path d="M0 20.6254C0.133994 21.8682 0.267989 23.111 0.401983 24.3538C7.05954 24.0693 13.575 23.812 20.3416 23.5048C47.1199 22.3177 73.7273 20.8166 100.271 18.8782C193.445 12.1299 286.701 7.20722 380.181 4.8248C386.823 4.6573 393.497 4.5035 400.201 4.36461C400.201 3.11461 400.201 1.86461 400.201 0.614609C393.49 0.47572 386.807 0.361027 380.155 0.269315C286.528 -0.977721 192.927 2.14055 99.5436 8.90464C72.9389 10.8475 46.3622 13.684 19.7764 17.5315C13.0546 18.5041 6.6114 19.5078 0 20.6254Z" fill="url(#paint0_linear_109_3730)" fill-opacity="0.88"/>
<defs>
<linearGradient id="paint0_linear_109_3730" x1="199.701" y1="-21.0104" x2="199.701" y2="22.4896" gradientUnits="userSpaceOnUse">
<stop stop-color="#4ADE80"/>
<stop offset="1" stop-color="#166534"/>
</linearGradient>
</defs>
</svg>
